<mxfile host="65bd71144e">
    <diagram id="iBAyOc8dBVCklfJSSNI8" name="Page-1">
        <mxGraphModel dx="1469" dy="1115" grid="1" gridSize="10" guides="1" tooltips="1" connect="1" arrows="1" fold="1" page="1" pageScale="1" pageWidth="850" pageHeight="1100" background="none" math="0" shadow="0">
            <root>
                <mxCell id="0"/>
                <mxCell id="1" parent="0"/>
                <mxCell id="22" value="" style="rounded=0;whiteSpace=wrap;html=1;fontSize=25;fillColor=#f0a30a;fillStyle=dashed;opacity=70;fontColor=#FFFFFF;strokeColor=#BD7000;labelBackgroundColor=none;sketch=1;curveFitting=1;jiggle=2;" parent="1" vertex="1">
                    <mxGeometry x="220" y="130" width="250" height="1160" as="geometry"/>
                </mxCell>
                <mxCell id="20" value="" style="rounded=0;whiteSpace=wrap;html=1;fontSize=25;fillColor=#60a917;fillStyle=dashed;opacity=70;fontColor=#FFFFFF;strokeColor=#2D7600;labelBackgroundColor=none;sketch=1;curveFitting=1;jiggle=2;" parent="1" vertex="1">
                    <mxGeometry x="730" y="132" width="250" height="1155" as="geometry"/>
                </mxCell>
                <mxCell id="27" value="" style="rounded=0;whiteSpace=wrap;html=1;fontSize=25;fillColor=#1ba1e2;fillStyle=dashed;opacity=70;fontColor=#FFFFFF;strokeColor=#006EAF;labelBackgroundColor=none;sketch=1;curveFitting=1;jiggle=2;" parent="1" vertex="1">
                    <mxGeometry x="470" y="130" width="250" height="1160" as="geometry"/>
                </mxCell>
                <mxCell id="2" value="&lt;font color=&quot;#ffffff&quot;&gt;Actor&lt;/font&gt;" style="shape=umlActor;verticalLabelPosition=bottom;verticalAlign=top;html=1;outlineConnect=0;rounded=0;labelBackgroundColor=none;labelBorderColor=none;strokeWidth=2;fillColor=#FFFFFF;gradientColor=#b3b3b3;strokeColor=#FFFFFF;sketch=1;curveFitting=1;jiggle=2;" parent="1" vertex="1">
                    <mxGeometry x="40" y="520" width="30" height="60" as="geometry"/>
                </mxCell>
                <mxCell id="3" value="" style="endArrow=classic;html=1;rounded=0;strokeColor=#FFFFFF;fontColor=#FFFFFF;labelBackgroundColor=none;startArrow=none;sketch=1;curveFitting=1;jiggle=2;" parent="1" edge="1" source="24">
                    <mxGeometry width="50" height="50" relative="1" as="geometry">
                        <mxPoint x="80" y="560" as="sourcePoint"/>
                        <mxPoint x="250" y="280" as="targetPoint"/>
                        <Array as="points">
                            <mxPoint x="80" y="280"/>
                        </Array>
                    </mxGeometry>
                </mxCell>
                <mxCell id="9" value="Sparsupport" style="swimlane;whiteSpace=wrap;html=1;rounded=0;fontColor=#000000;strokeColor=#FFFFFF;fillStyle=solid;labelBackgroundColor=none;sketch=1;curveFitting=1;jiggle=2;" parent="1" vertex="1">
                    <mxGeometry x="480" y="435" width="210" height="245" as="geometry"/>
                </mxCell>
                <mxCell id="10" value="Cheer-up" style="swimlane;whiteSpace=wrap;html=1;rounded=0;swimlaneFillColor=none;strokeColor=#FFFFFF;fontColor=#000000;labelBackgroundColor=none;sketch=1;curveFitting=1;jiggle=2;" parent="1" vertex="1">
                    <mxGeometry x="480" y="710" width="210" height="260" as="geometry"/>
                </mxCell>
                <mxCell id="12" value="Netflix and Chill" style="swimlane;whiteSpace=wrap;html=1;rounded=0;fontColor=#000000;strokeColor=#FFFFFF;labelBackgroundColor=none;sketch=1;curveFitting=1;jiggle=2;" parent="1" vertex="1">
                    <mxGeometry x="751" y="990" width="210" height="200" as="geometry"/>
                </mxCell>
                <mxCell id="13" value="&lt;font style=&quot;font-size: 25px;&quot;&gt;Morning&lt;/font&gt;" style="text;html=1;align=center;verticalAlign=middle;resizable=0;points=[];autosize=1;strokeColor=none;fillColor=none;fontSize=25;rounded=0;fontColor=#FFFFFF;labelBackgroundColor=none;sketch=1;curveFitting=1;jiggle=2;" parent="1" vertex="1">
                    <mxGeometry x="295" y="155" width="110" height="40" as="geometry"/>
                </mxCell>
                <mxCell id="14" value="Afternoon" style="text;html=1;align=center;verticalAlign=middle;resizable=0;points=[];autosize=1;strokeColor=none;fillColor=none;fontSize=25;rounded=0;fontColor=#FFFFFF;labelBackgroundColor=none;sketch=1;curveFitting=1;jiggle=2;" parent="1" vertex="1">
                    <mxGeometry x="520" y="155" width="130" height="40" as="geometry"/>
                </mxCell>
                <mxCell id="15" value="Evening" style="text;html=1;align=center;verticalAlign=middle;resizable=0;points=[];autosize=1;strokeColor=none;fillColor=none;fontSize=25;rounded=0;fontColor=#FFFFFF;labelBackgroundColor=none;sketch=1;curveFitting=1;jiggle=2;" parent="1" vertex="1">
                    <mxGeometry x="825" y="155" width="110" height="40" as="geometry"/>
                </mxCell>
                <mxCell id="18" value="" style="endArrow=classic;html=1;fontSize=25;entryX=0;entryY=0.5;entryDx=0;entryDy=0;rounded=0;strokeColor=#FFFFFF;fontColor=#FFFFFF;labelBackgroundColor=none;sketch=1;curveFitting=1;jiggle=2;" parent="1" target="10" edge="1">
                    <mxGeometry width="50" height="50" relative="1" as="geometry">
                        <mxPoint x="80" y="580" as="sourcePoint"/>
                        <mxPoint x="660" y="640" as="targetPoint"/>
                        <Array as="points">
                            <mxPoint x="80" y="840"/>
                        </Array>
                    </mxGeometry>
                </mxCell>
                <mxCell id="23" value="&lt;font style=&quot;font-size: 15px;&quot;&gt;Trigger-words&lt;/font&gt;" style="edgeLabel;html=1;align=center;verticalAlign=middle;resizable=0;points=[];fontSize=25;rounded=0;fontColor=#FFFFFF;labelBackgroundColor=none;sketch=1;curveFitting=1;jiggle=2;" parent="18" vertex="1" connectable="0">
                    <mxGeometry x="0.0242" y="-2" relative="1" as="geometry">
                        <mxPoint as="offset"/>
                    </mxGeometry>
                </mxCell>
                <mxCell id="19" value="" style="endArrow=classic;html=1;fontSize=25;entryX=0;entryY=0.5;entryDx=0;entryDy=0;rounded=0;strokeColor=#FFFFFF;fontColor=#FFFFFF;labelBackgroundColor=none;startArrow=none;sketch=1;curveFitting=1;jiggle=2;" parent="1" target="12" edge="1" source="26">
                    <mxGeometry width="50" height="50" relative="1" as="geometry">
                        <mxPoint x="60" y="610" as="sourcePoint"/>
                        <mxPoint x="710" y="770" as="targetPoint"/>
                        <Array as="points">
                            <mxPoint x="60" y="1090"/>
                        </Array>
                    </mxGeometry>
                </mxCell>
                <mxCell id="5" value="Good Morning Usecase" style="swimlane;whiteSpace=wrap;html=1;rounded=0;fontColor=#000000;strokeColor=#FFFFFF;labelBackgroundColor=none;startSize=23;sketch=1;curveFitting=1;jiggle=2;" parent="1" vertex="1">
                    <mxGeometry x="246" y="200" width="210" height="210" as="geometry"/>
                </mxCell>
                <mxCell id="28" value="" style="endArrow=classic;html=1;rounded=0;strokeColor=#FFFFFF;fontColor=#FFFFFF;labelBackgroundColor=none;entryX=0;entryY=0.5;entryDx=0;entryDy=0;startArrow=none;sketch=1;curveFitting=1;jiggle=2;" edge="1" parent="1" source="25" target="9">
                    <mxGeometry width="50" height="50" relative="1" as="geometry">
                        <mxPoint x="90" y="558" as="sourcePoint"/>
                        <mxPoint x="260" y="290" as="targetPoint"/>
                        <Array as="points"/>
                    </mxGeometry>
                </mxCell>
                <mxCell id="31" value="" style="endArrow=none;html=1;rounded=0;strokeColor=#FFFFFF;fontColor=#FFFFFF;labelBackgroundColor=none;sketch=1;curveFitting=1;jiggle=2;" edge="1" parent="1" target="24">
                    <mxGeometry width="50" height="50" relative="1" as="geometry">
                        <mxPoint x="80" y="560" as="sourcePoint"/>
                        <mxPoint x="250" y="280" as="targetPoint"/>
                        <Array as="points"/>
                    </mxGeometry>
                </mxCell>
                <mxCell id="32" value="Uhrzeit" style="edgeLabel;html=1;align=center;verticalAlign=middle;resizable=0;points=[];rounded=0;fontColor=#FFFFFF;labelBackgroundColor=none;sketch=1;curveFitting=1;jiggle=2;" vertex="1" connectable="0" parent="31">
                    <mxGeometry x="-0.2" y="-4" relative="1" as="geometry">
                        <mxPoint as="offset"/>
                    </mxGeometry>
                </mxCell>
                <mxCell id="24" value="&lt;font style=&quot;font-size: 23px;&quot;&gt;Proactive&lt;/font&gt;" style="rounded=0;whiteSpace=wrap;html=1;fillStyle=auto;fontSize=15;fillColor=#00CC00;gradientColor=none;strokeColor=#009900;fontColor=#FFFFFF;labelBackgroundColor=none;sketch=1;curveFitting=1;jiggle=2;" parent="1" vertex="1">
                    <mxGeometry x="21" y="314" width="120" height="60" as="geometry"/>
                </mxCell>
                <mxCell id="33" value="" style="endArrow=none;html=1;rounded=0;strokeColor=#FFFFFF;fontColor=#FFFFFF;labelBackgroundColor=none;entryX=0;entryY=0.5;entryDx=0;entryDy=0;sketch=1;curveFitting=1;jiggle=2;" edge="1" parent="1" target="25">
                    <mxGeometry width="50" height="50" relative="1" as="geometry">
                        <mxPoint x="90" y="558" as="sourcePoint"/>
                        <mxPoint x="480" y="557.5" as="targetPoint"/>
                        <Array as="points"/>
                    </mxGeometry>
                </mxCell>
                <mxCell id="25" value="&lt;font style=&quot;font-size: 23px;&quot;&gt;Proactive&lt;/font&gt;" style="rounded=0;whiteSpace=wrap;html=1;fillStyle=auto;fontSize=15;fillColor=#00CC00;gradientColor=none;strokeColor=#009900;fontColor=#FFFFFF;labelBackgroundColor=none;sketch=1;curveFitting=1;jiggle=2;" parent="1" vertex="1">
                    <mxGeometry x="150" y="528" width="120" height="60" as="geometry"/>
                </mxCell>
                <mxCell id="34" value="" style="endArrow=none;html=1;fontSize=25;entryX=0;entryY=0.5;entryDx=0;entryDy=0;rounded=0;strokeColor=#FFFFFF;fontColor=#FFFFFF;labelBackgroundColor=none;sketch=1;curveFitting=1;jiggle=2;" edge="1" parent="1" target="26">
                    <mxGeometry width="50" height="50" relative="1" as="geometry">
                        <mxPoint x="60" y="610" as="sourcePoint"/>
                        <mxPoint x="751" y="1090" as="targetPoint"/>
                        <Array as="points"/>
                    </mxGeometry>
                </mxCell>
                <mxCell id="26" value="&lt;font style=&quot;font-size: 23px;&quot;&gt;Proactive&lt;/font&gt;" style="rounded=0;whiteSpace=wrap;html=1;fillStyle=auto;fontSize=15;fillColor=#00CC00;gradientColor=none;strokeColor=#009900;fontColor=#FFFFFF;labelBackgroundColor=none;sketch=1;curveFitting=1;jiggle=2;" parent="1" vertex="1">
                    <mxGeometry x="60" y="1060" width="120" height="60" as="geometry"/>
                </mxCell>
            </root>
        </mxGraphModel>
    </diagram>
</mxfile>